# xmcd
#
# Track frame offsets: 
#        150
#        10825
#        25667
#        36834
#        52201
#        63309
#        76376
#        91448
#        103871
#        116903
#        132439
#
# Disc length: 1870 seconds
#
# Revision: 0
# Processed by: cddbd v1.5.2PL0 Copyright (c) Steve Scherf et al.
# Submitted via: ExactAudioCopy v1.3
#
DISCID=94074c0b
DTITLE=Kellie Pickler - 100 Proof
DYEAR=2012
DGENRE=Country
TTITLE0=Where's Tammy Wynette
TTITLE1=Unlock That Honky Tonk
TTITLE2=Stop Cheatin' On Me
TTITLE3=Long As I Never See You Again
TTITLE4=Tough
TTITLE5=Turn On The Radio And Dance
TTITLE6=Mother's Day
TTITLE7=Rockaway (The Rockin' Chair Song)
TTITLE8=Little House On The Highway
TTITLE9=100 Proof
TTITLE10=The Letter (To Daddy)
EXTD=
EXTT0=
EXTT1=
EXTT2=
EXTT3=
EXTT4=
EXTT5=
EXTT6=
EXTT7=
EXTT8=
EXTT9=
EXTT10=
PLAYORDER=
